{"glyphs":{"0":{"ha":544,"x_min":0,"x_max":0,"o":""},"1":{"ha":544,"x_min":0,"x_max":0,"o":""},"2":{"ha":544,"x_min":0,"x_max":0,"o":""},"3":{"ha":544,"x_min":0,"x_max":0,"o":""},"4":{"ha":544,"x_min":0,"x_max":0,"o":""},"5":{"ha":544,"x_min":0,"x_max":0,"o":""},"6":{"ha":544,"x_min":0,"x_max":0,"o":""},"7":{"ha":544,"x_min":0,"x_max":0,"o":""},"8":{"ha":544,"x_min":0,"x_max":0,"o":""},"9":{"ha":544,"x_min":0,"x_max":0,"o":""},"\u0000":{"ha":544,"x_min":0,"x_max":0,"o":""},"\r":{"ha":544,"x_min":0,"x_max":0,"o":""}," ":{"ha":544,"x_min":0,"x_max":0,"o":""},",":{"ha":544,"x_min":0,"x_max":0,"o":""},"-":{"ha":544,"x_min":0,"x_max":0,"o":""},".":{"ha":447,"x_min":222,"x_max":314,"o":"m 222 56 q 235 88 222 75 q 268 101 249 101 q 301 88 288 101 q 314 56 314 75 q 301 23 314 36 q 268 10 288 10 q 235 23 249 10 q 222 56 222 36 z "},"/":{"ha":544,"x_min":0,"x_max":0,"o":""},":":{"ha":544,"x_min":0,"x_max":0,"o":""},";":{"ha":544,"x_min":0,"x_max":0,"o":""},"<":{"ha":544,"x_min":0,"x_max":0,"o":""},"=":{"ha":544,"x_min":0,"x_max":0,"o":""},">":{"ha":544,"x_min":0,"x_max":0,"o":""},"?":{"ha":544,"x_min":0,"x_max":0,"o":""},"@":{"ha":544,"x_min":0,"x_max":0,"o":""},"A":{"ha":996,"x_min":22,"x_max":901,"o":"m 901 21 q 895 6 901 13 q 881 0 889 0 q 860 14 864 0 l 456 1033 l 410 915 q 433 860 415 904 q 478 751 451 815 q 535 608 504 686 q 597 449 565 529 q 659 292 629 368 q 712 156 689 215 q 749 59 735 96 q 763 21 763 22 q 749 1 763 6 q 744 1 746 1 q 740 0 743 0 q 721 14 726 0 l 388 856 l 64 14 q 43 0 58 0 q 40 1 40 0 q 36 1 39 1 q 22 22 22 6 q 39 68 22 24 q 83 183 56 113 q 145 346 110 254 q 217 534 181 438 q 291 725 254 631 q 358 898 328 819 q 408 1030 388 976 q 435 1099 429 1083 q 456 1111 440 1111 q 475 1099 471 1111 q 502 1030 481 1083 q 554 898 524 976 q 623 725 585 819 q 699 534 661 631 q 774 346 738 438 q 839 183 811 254 q 884 67 867 111 q 901 21 901 22 z "},"B":{"ha":1014,"x_min":122,"x_max":897,"o":"m 897 310 q 873 190 897 246 q 807 92 849 133 q 709 26 765 50 q 589 1 653 1 l 281 1 q 265 10 269 1 q 260 28 260 18 l 260 1069 l 168 1069 l 168 21 q 160 6 168 11 q 144 0 153 0 q 129 6 136 0 q 122 21 122 13 l 122 1090 q 144 1111 122 1111 l 563 1111 q 667 1090 618 1111 q 753 1033 717 1069 q 810 947 789 996 q 832 843 832 899 q 792 702 832 767 q 682 604 753 638 q 769 560 729 589 q 838 492 810 531 q 881 406 865 453 q 897 310 897 360 m 789 843 q 771 931 789 890 q 722 1003 753 972 q 651 1051 692 1033 q 563 1069 610 1069 l 300 1069 l 300 618 l 563 618 q 650 636 608 618 q 722 685 692 654 q 771 756 753 715 q 789 843 789 797 m 854 310 q 833 413 854 364 q 776 497 813 461 q 692 554 740 533 q 589 575 643 575 q 582 576 583 575 l 300 576 l 300 43 l 589 43 q 692 64 644 43 q 776 121 740 85 q 833 206 813 157 q 854 310 854 254 z "},"C":{"ha":944,"x_min":0,"x_max":933,"o":"m 933 157 q 925 140 933 149 q 753 35 850 69 q 556 0 656 0 q 339 44 440 0 q 163 163 238 88 q 44 339 88 238 q 0 556 0 440 q 44 772 0 671 q 163 949 88 874 q 339 1067 238 1024 q 556 1111 440 1111 q 655 1102 604 1111 q 753 1075 706 1093 q 845 1031 801 1057 q 925 971 889 1006 q 933 954 933 963 q 926 939 933 946 q 910 932 918 932 q 896 938 901 932 q 817 992 856 968 q 738 1033 778 1017 q 652 1059 697 1050 q 556 1068 607 1068 q 357 1028 450 1068 q 194 917 264 988 q 83 754 124 847 q 43 556 43 661 q 83 357 43 450 q 194 194 124 264 q 357 83 264 124 q 556 43 450 43 q 738 77 656 43 q 896 174 819 111 q 911 181 903 181 q 926 173 919 181 q 933 157 933 165 z "},"D":{"ha":1124,"x_min":117,"x_max":1014,"o":"m 1014 557 q 970 341 1014 442 q 851 165 926 240 q 675 47 776 90 q 460 3 574 4 l 278 1 q 262 8 268 1 q 256 25 256 15 l 256 1067 l 160 1067 l 160 22 q 138 0 160 0 q 122 7 128 0 q 117 22 117 14 l 117 1088 q 123 1104 117 1097 q 139 1111 129 1111 l 460 1111 q 675 1067 574 1111 q 851 949 776 1024 q 970 772 926 874 q 1014 557 1014 671 m 971 557 q 931 756 971 663 q 822 919 890 850 q 659 1028 753 988 q 460 1068 565 1068 q 379 1067 419 1068 q 299 1067 339 1067 l 299 46 q 379 46 339 46 q 460 47 419 46 q 658 89 565 49 q 821 198 751 129 q 931 359 890 267 q 971 557 971 451 z "},"E":{"ha":854,"x_min":107,"x_max":831,"o":"m 831 24 q 825 8 831 15 q 810 0 819 0 l 129 0 q 113 7 119 0 q 107 24 107 14 l 107 1090 q 114 1106 107 1100 q 129 1111 121 1111 l 810 1111 q 824 1105 818 1111 q 831 1090 831 1099 q 824 1076 831 1082 q 810 1069 818 1069 l 149 1069 l 149 638 l 664 638 q 678 631 672 638 q 685 617 685 625 q 678 602 685 608 q 664 596 672 596 l 151 596 l 150 501 l 669 501 q 692 479 692 501 q 685 464 692 471 q 669 457 678 457 l 149 457 l 149 47 l 810 47 q 824 40 818 47 q 831 24 831 32 z "},"F":{"ha":824,"x_min":92,"x_max":817,"o":"m 817 1090 q 794 1069 817 1069 l 136 1069 l 136 638 l 649 638 q 664 632 657 638 q 671 617 671 626 q 649 596 671 596 l 136 596 l 136 504 l 656 504 q 672 497 665 504 q 678 481 678 490 q 671 465 678 472 q 656 458 664 458 l 136 458 l 136 22 q 114 0 136 0 q 99 7 106 0 q 92 22 92 14 l 92 1090 q 114 1111 92 1111 l 794 1111 q 817 1090 817 1111 z "},"G":{"ha":1101,"x_min":94,"x_max":1028,"o":"m 1021 621 q 1015 606 1021 613 q 1000 599 1010 599 l 458 599 q 436 621 436 599 q 443 636 436 631 q 458 642 450 642 l 1000 642 q 1015 635 1008 642 q 1021 621 1021 629 m 1026 157 q 1019 140 1026 147 q 847 35 944 69 q 650 0 750 0 q 433 44 535 0 q 257 163 332 88 q 138 339 182 238 q 94 556 94 440 q 138 772 94 671 q 257 949 182 874 q 433 1067 332 1024 q 650 1111 535 1111 q 847 1076 750 1111 q 1018 971 943 1042 q 1026 956 1026 963 q 1019 938 1026 946 q 1003 931 1013 931 q 989 938 996 931 q 832 1034 914 1000 q 650 1068 750 1068 q 451 1028 544 1068 q 288 917 358 988 q 178 754 218 847 q 138 556 138 661 q 178 357 138 450 q 288 194 218 264 q 451 83 358 124 q 650 43 544 43 q 827 76 742 43 q 983 167 913 108 l 985 461 l 456 461 q 440 468 446 461 q 433 485 433 475 q 440 500 433 493 q 456 507 446 507 l 1006 507 q 1028 483 1028 507 l 1026 157 z "},"H":{"ha":1121,"x_min":194,"x_max":935,"o":"m 935 22 q 928 7 935 14 q 913 0 921 0 q 896 6 903 0 q 889 22 889 13 l 889 458 l 236 458 l 236 22 q 215 0 236 0 q 200 7 206 0 q 194 22 194 14 l 194 1090 q 201 1105 194 1099 q 215 1111 207 1111 q 230 1105 224 1111 q 236 1090 236 1099 l 236 636 l 889 636 l 889 1090 q 897 1106 889 1100 q 913 1111 904 1111 q 928 1105 921 1111 q 935 1090 935 1099 l 935 22 m 889 503 l 889 596 l 239 596 l 238 503 l 889 503 z "},"I":{"ha":424,"x_min":194,"x_max":238,"o":"m 238 21 q 231 6 238 11 q 215 0 224 0 q 201 6 207 0 q 194 21 194 13 l 194 1090 q 201 1105 194 1099 q 215 1111 207 1111 q 231 1106 224 1111 q 238 1090 238 1100 l 238 21 z "},"J":{"ha":872,"x_min":97,"x_max":690,"o":"m 690 344 q 663 211 690 274 q 590 101 636 149 q 481 27 543 54 q 347 0 418 0 q 215 26 279 0 q 104 101 151 53 q 97 115 97 108 q 105 130 97 122 q 121 138 113 138 q 143 123 126 138 q 188 90 160 108 q 256 58 217 72 q 349 43 296 43 q 466 67 411 43 q 562 131 521 90 q 626 227 603 172 q 650 344 650 282 l 650 1090 q 656 1105 650 1099 q 671 1111 663 1111 q 685 1105 679 1111 q 690 1090 690 1099 l 690 344 z "},"K":{"ha":883,"x_min":103,"x_max":765,"o":"m 765 19 q 758 6 765 11 q 743 0 750 0 q 726 8 732 0 l 353 531 l 147 325 l 147 31 q 140 16 147 22 q 125 10 133 10 q 110 15 117 10 q 103 31 103 21 l 103 1083 q 110 1099 103 1093 q 125 1104 117 1104 q 140 1098 133 1104 q 147 1083 147 1092 l 147 572 l 679 1106 q 693 1113 686 1113 q 708 1105 701 1113 q 715 1090 715 1097 q 708 1075 715 1082 l 147 513 l 147 385 q 169 408 153 390 q 207 447 186 425 q 252 493 228 469 q 297 537 276 517 q 333 570 318 557 q 353 583 349 583 q 372 575 365 583 q 413 517 381 563 q 490 413 446 472 q 582 286 533 353 q 672 162 631 219 q 739 65 713 104 q 765 19 765 25 z "},"L":{"ha":835,"x_min":99,"x_max":801,"o":"m 801 21 q 779 0 801 0 l 119 0 q 99 21 99 0 l 99 1083 q 105 1098 99 1092 q 119 1104 111 1104 q 134 1098 128 1104 q 140 1083 140 1092 l 140 42 l 233 42 l 233 1089 q 240 1104 233 1097 q 256 1111 247 1111 q 278 1089 278 1111 l 278 42 l 779 42 q 801 21 801 42 z "},"M":{"ha":1475,"x_min":192,"x_max":1289,"o":"m 1289 1092 q 1288 1083 1289 1085 l 1288 21 q 1281 6 1288 13 q 1267 0 1275 0 q 1253 6 1258 0 q 1247 21 1247 13 l 1247 1024 l 768 353 q 793 317 774 343 q 838 255 813 290 q 893 181 864 219 q 946 109 922 143 q 985 51 969 75 q 1001 22 1001 28 q 994 6 1001 13 q 979 0 988 0 q 963 8 968 0 l 199 1072 q 194 1086 194 1078 q 200 1101 194 1094 q 215 1107 206 1107 q 233 1097 228 1107 l 742 389 l 1250 1103 q 1265 1111 1256 1111 q 1281 1106 1274 1111 q 1289 1092 1289 1100 m 833 21 q 826 6 833 13 q 811 0 819 0 q 794 8 800 0 l 236 792 l 236 28 q 229 13 236 18 q 214 7 222 7 q 199 13 206 7 q 192 28 192 19 l 192 856 q 197 874 192 865 q 214 882 203 882 q 231 872 225 882 q 272 816 240 858 q 347 713 303 774 q 444 578 390 651 q 551 428 497 504 q 656 281 606 353 q 747 153 707 210 q 810 61 786 97 q 833 21 833 25 z "},"N":{"ha":1183,"x_min":189,"x_max":997,"o":"m 997 22 q 975 0 997 0 q 958 8 964 0 l 194 1071 q 192 1083 192 1074 q 213 1106 192 1106 q 229 1096 221 1106 l 954 88 l 954 1090 q 960 1105 954 1099 q 975 1111 967 1111 q 990 1105 983 1111 q 996 1090 996 1099 l 997 22 m 829 21 q 822 6 829 13 q 807 0 815 0 q 790 8 796 0 l 233 790 l 233 22 q 226 7 233 14 q 211 0 219 0 q 189 22 189 0 l 189 860 q 196 874 189 867 q 210 881 203 881 q 228 871 219 881 q 268 815 238 857 q 343 711 299 772 q 440 576 388 650 q 547 426 493 501 q 652 280 601 351 q 742 152 703 208 q 806 60 782 96 q 829 21 829 25 z "},"O":{"ha":1254,"x_min":33,"x_max":1144,"o":"m 1144 556 q 1101 339 1144 440 q 982 163 1057 238 q 806 44 907 88 q 589 0 704 0 q 372 44 474 0 q 196 163 271 88 q 77 339 121 238 q 33 556 33 440 q 77 772 33 671 q 196 949 121 874 q 372 1067 271 1024 q 589 1111 474 1111 q 806 1067 704 1111 q 982 949 907 1024 q 1101 772 1057 874 q 1144 556 1144 671 m 1101 556 q 1061 754 1101 661 q 951 917 1021 847 q 788 1028 881 988 q 589 1068 694 1068 q 390 1028 483 1068 q 227 917 297 988 q 117 754 157 847 q 76 556 76 661 q 117 357 76 450 q 227 194 157 264 q 390 83 297 124 q 589 43 483 43 q 788 83 694 43 q 951 194 881 124 q 1061 357 1021 264 q 1101 556 1101 450 z "},"P":{"ha":886,"x_min":106,"x_max":813,"o":"m 813 843 q 791 739 813 788 q 733 653 769 690 q 649 596 697 617 q 544 575 600 575 l 285 575 l 285 28 q 277 13 285 18 q 261 7 269 7 q 246 13 253 7 q 239 28 239 19 l 239 1067 l 149 1067 l 149 21 q 142 6 149 11 q 126 0 135 0 q 112 6 118 0 q 106 21 106 13 l 106 1089 q 126 1111 106 1111 l 544 1111 q 649 1090 600 1111 q 733 1032 697 1068 q 791 947 769 996 q 813 843 813 899 m 769 842 q 751 928 769 888 q 703 1000 733 969 q 631 1049 672 1031 q 544 1067 590 1067 l 285 1067 l 285 617 l 544 617 q 631 635 590 617 q 703 683 672 653 q 751 755 733 714 q 769 842 769 796 z "},"Q":{"ha":1322,"x_min":106,"x_max":1207,"o":"m 1207 561 q 1054 181 1207 342 q 1078 148 1060 172 q 1115 98 1096 124 q 1148 49 1133 72 q 1163 21 1163 26 q 1156 6 1163 13 q 1142 0 1150 0 q 1124 8 1129 0 q 1092 51 1117 18 q 1036 129 1068 85 q 968 223 1004 174 q 902 315 932 272 q 853 388 872 358 q 833 422 833 418 q 840 437 833 431 q 854 443 846 443 q 872 433 867 443 l 1028 217 q 1128 376 1094 288 q 1163 561 1163 464 q 1122 758 1163 665 q 1013 919 1082 850 q 852 1028 944 988 q 656 1068 760 1068 q 459 1028 551 1068 q 298 919 367 988 q 189 758 229 850 q 149 561 149 665 q 189 365 149 457 q 298 203 229 272 q 459 94 367 135 q 656 54 551 54 q 772 69 715 54 q 883 107 829 83 q 859 140 878 115 q 816 199 840 165 q 765 270 792 233 q 716 340 739 307 q 678 394 693 372 q 664 421 664 417 q 670 436 664 429 q 686 443 676 443 q 704 433 699 443 q 731 394 708 426 q 786 317 754 363 q 854 222 818 272 q 921 128 890 171 q 972 54 951 85 q 992 21 992 24 q 985 6 992 13 q 971 0 979 0 q 953 9 963 0 q 936 30 944 18 q 920 53 928 42 q 908 72 913 65 q 786 26 850 42 q 656 10 722 10 q 440 53 540 10 q 266 171 340 96 q 149 346 192 246 q 106 561 106 446 q 149 775 106 675 q 267 950 192 875 q 442 1068 342 1025 q 656 1111 542 1111 q 870 1068 769 1111 q 1046 951 971 1025 q 1164 776 1121 876 q 1207 561 1207 675 z "},"R":{"ha":928,"x_min":118,"x_max":793,"o":"m 793 864 q 776 772 793 815 q 731 694 760 728 q 660 639 701 661 q 571 610 619 617 q 556 608 564 608 q 542 608 549 608 l 300 608 l 299 515 l 553 515 q 572 503 565 515 q 594 453 576 492 q 637 361 613 414 q 688 250 661 308 q 738 142 715 192 q 776 58 761 92 q 792 19 792 24 q 785 5 792 10 q 769 0 778 0 q 750 13 756 0 l 539 472 l 294 472 l 294 28 q 288 13 294 18 q 272 7 281 7 q 258 13 264 7 q 251 28 251 19 l 251 1069 l 161 1069 l 161 21 q 154 6 161 11 q 139 0 147 0 q 124 6 131 0 q 118 21 118 13 l 118 1090 q 139 1111 118 1111 l 542 1111 q 640 1092 594 1111 q 720 1040 686 1074 q 774 962 754 1007 q 793 864 793 917 m 750 864 q 733 944 750 907 q 688 1010 717 982 q 622 1053 660 1038 q 542 1069 585 1069 l 294 1069 l 294 651 l 542 651 q 623 668 585 651 q 690 714 661 685 q 734 781 718 743 q 750 864 750 819 z "},"S":{"ha":874,"x_min":-1,"x_max":790,"o":"m 790 299 q 758 167 790 224 q 672 74 725 111 q 552 19 618 38 q 419 0 486 0 q 196 46 301 0 q 7 171 90 92 q -1 186 -1 179 q 6 202 -1 194 q 22 210 13 210 q 36 203 29 210 q 215 87 122 131 q 422 43 307 43 q 538 59 481 43 q 642 108 596 75 q 717 189 689 140 q 746 303 746 238 q 721 394 746 356 q 656 459 696 432 q 563 504 615 486 q 458 535 511 522 q 355 558 406 549 q 267 578 304 568 q 178 612 221 590 q 104 665 136 633 q 53 740 72 697 q 35 835 35 782 q 67 958 35 906 q 152 1044 100 1010 q 267 1095 204 1078 q 392 1113 331 1113 q 480 1104 431 1113 q 578 1080 529 1096 q 671 1042 628 1064 q 743 992 714 1019 q 749 985 747 988 q 751 975 751 982 q 744 960 751 967 q 729 953 738 953 q 719 957 726 953 q 702 967 711 961 q 685 978 693 974 q 674 986 678 983 q 540 1046 611 1024 q 394 1068 469 1068 q 286 1055 342 1068 q 184 1014 231 1042 q 108 942 138 986 q 78 838 78 899 q 108 728 78 771 q 189 659 139 686 q 303 615 239 632 q 434 583 367 599 q 565 550 501 568 q 679 501 629 532 q 760 422 729 469 q 790 299 790 374 z "},"T":{"ha":939,"x_min":92,"x_max":824,"o":"m 817 1090 q 810 1076 817 1082 q 796 1069 804 1069 l 113 1069 q 98 1076 104 1069 q 92 1090 92 1082 q 98 1105 92 1099 q 113 1111 104 1111 l 796 1111 q 810 1105 804 1111 q 817 1090 817 1099 m 824 956 q 817 940 824 947 q 803 933 811 933 l 481 933 l 481 21 q 474 6 481 13 q 458 0 467 0 q 443 6 450 0 q 436 21 436 11 l 436 933 l 113 933 q 98 940 104 933 q 92 956 92 947 q 97 972 92 964 q 113 979 103 979 l 803 979 q 818 972 813 979 q 824 956 824 964 z "},"U":{"ha":1038,"x_min":189,"x_max":840,"o":"m 840 275 q 819 169 840 219 q 762 82 799 119 q 676 22 725 44 q 571 0 626 0 l 464 0 q 357 22 407 0 q 269 81 307 43 q 210 168 232 118 q 189 275 189 218 l 189 1090 q 195 1105 189 1099 q 210 1111 201 1111 q 224 1105 218 1111 q 231 1090 231 1099 l 231 275 q 249 185 231 228 q 300 111 268 143 q 374 60 332 79 q 464 42 417 42 l 571 42 q 660 60 618 42 q 732 111 701 79 q 781 185 763 143 q 799 275 799 228 l 799 1090 q 805 1105 799 1099 q 819 1111 811 1111 q 834 1105 828 1111 q 840 1090 840 1099 l 840 275 z "},"V":{"ha":969,"x_min":0,"x_max":876,"o":"m 876 1090 q 859 1043 876 1088 q 814 927 842 999 q 750 765 786 856 q 675 577 714 674 q 599 386 636 481 q 530 214 561 292 q 478 83 499 136 q 451 14 457 29 q 432 0 446 0 q 422 6 428 3 q 413 14 415 8 q 386 82 407 28 q 335 214 365 136 q 269 386 306 292 q 194 577 232 481 q 122 765 157 674 q 60 928 88 857 q 17 1043 33 999 q 0 1089 0 1088 q 6 1105 0 1099 q 21 1111 13 1111 q 42 1097 38 1111 l 364 258 l 696 1097 q 717 1111 700 1111 q 731 1105 725 1111 q 738 1090 738 1099 q 724 1051 738 1088 q 687 956 710 1015 q 635 822 664 897 q 574 666 606 746 q 511 508 542 586 q 455 366 481 431 q 411 257 429 301 q 388 200 393 213 l 432 82 l 835 1097 q 856 1111 839 1111 q 870 1105 864 1111 q 876 1090 876 1099 z "},"W":{"ha":1469,"x_min":189,"x_max":1283,"o":"m 1283 21 q 1277 6 1283 13 q 1263 0 1271 0 q 1246 8 1251 0 l 738 721 l 229 14 q 213 4 224 4 q 197 11 203 4 q 190 26 190 18 q 221 76 190 31 q 302 192 251 121 q 417 353 353 263 q 551 538 482 443 q 689 727 621 633 q 813 898 757 821 q 908 1030 868 975 q 958 1101 947 1085 q 974 1110 964 1110 q 990 1103 982 1110 q 997 1088 997 1097 q 981 1058 997 1082 q 942 1001 965 1035 q 890 929 918 968 q 835 856 861 890 q 789 794 808 821 q 764 758 769 767 l 1240 89 l 1240 1090 q 1247 1106 1240 1100 q 1263 1111 1254 1111 q 1277 1105 1271 1111 q 1283 1090 1283 1099 l 1283 21 m 829 1088 q 806 1049 829 1085 q 742 958 782 1014 q 652 830 703 901 q 547 683 601 758 q 440 533 493 607 q 343 399 388 460 q 268 295 299 338 q 228 239 238 253 q 211 229 222 229 q 194 236 200 229 q 189 253 189 243 l 189 1083 q 195 1098 189 1092 q 210 1104 201 1104 q 225 1099 218 1104 q 232 1083 232 1093 l 232 317 l 790 1100 q 808 1110 796 1110 q 823 1103 817 1110 q 829 1088 829 1097 z "},"X":{"ha":1071,"x_min":0,"x_max":979,"o":"m 979 19 q 972 6 979 11 q 957 0 964 0 q 939 8 944 0 q 889 81 928 26 q 794 214 850 136 q 669 385 738 292 q 532 574 601 478 q 397 760 463 669 q 281 921 332 850 q 200 1037 231 992 q 169 1086 169 1082 q 177 1102 169 1096 q 193 1108 185 1108 q 208 1100 201 1108 l 517 671 l 826 1103 q 843 1111 832 1111 q 858 1106 851 1111 q 865 1090 865 1100 q 844 1052 865 1085 q 789 972 822 1019 q 717 870 756 925 q 642 766 678 815 q 578 681 606 717 q 543 633 551 644 l 974 33 q 979 19 979 28 m 810 22 q 803 6 810 13 q 788 0 796 0 q 771 8 776 0 l 432 481 l 94 8 q 78 0 88 0 q 63 6 69 0 q 56 22 56 13 q 79 62 56 26 q 139 149 103 97 q 219 259 175 200 q 301 372 263 318 q 369 465 340 425 q 407 517 399 506 q 363 575 397 529 q 284 683 329 621 q 189 815 239 746 q 97 944 139 885 q 28 1044 56 1004 q 0 1090 0 1085 q 6 1105 0 1099 q 22 1111 13 1111 q 39 1103 32 1111 q 89 1031 50 1086 q 184 899 128 976 q 309 726 240 821 q 447 536 378 632 q 582 349 517 440 q 698 187 647 258 q 779 71 749 115 q 810 22 810 26 z "},"Y":{"ha":944,"x_min":-1,"x_max":869,"o":"m 869 1090 q 848 1051 869 1085 q 793 967 826 1017 q 721 859 760 917 q 646 749 682 801 q 583 659 610 697 q 547 610 556 621 q 529 600 542 600 q 508 611 517 600 l 175 1075 q 171 1086 171 1079 q 178 1102 171 1096 q 194 1108 186 1108 q 210 1100 203 1108 l 528 658 l 829 1101 q 847 1111 835 1111 q 863 1105 856 1111 q 869 1090 869 1099 m 544 21 q 538 6 544 13 q 524 0 532 0 q 509 6 515 0 q 503 21 503 13 l 503 390 q 450 462 492 406 q 352 594 408 518 q 234 756 296 671 q 119 915 172 842 q 33 1037 67 988 q -1 1092 -1 1086 q 6 1106 -1 1100 q 22 1111 14 1111 q 39 1103 32 1111 l 540 410 q 544 397 544 403 l 544 21 z "},"Z":{"ha":978,"x_min":0,"x_max":840,"o":"m 840 1090 q 839 1081 840 1083 q 835 1074 838 1079 l 43 11 q 25 3 36 3 q 10 9 17 3 q 3 25 3 15 q 33 72 3 29 q 115 184 64 115 q 231 341 165 253 q 365 522 296 429 q 503 706 435 615 q 628 872 571 797 q 724 1000 685 947 q 775 1068 764 1053 l 22 1067 q 6 1074 13 1067 q 0 1090 0 1081 q 7 1106 0 1100 q 22 1111 14 1111 l 818 1111 q 833 1106 826 1111 q 840 1090 840 1100 m 840 853 q 835 840 840 846 l 236 43 l 807 43 q 829 21 829 43 q 822 6 829 11 q 807 0 815 0 l 194 0 q 178 6 186 0 q 169 22 169 13 q 175 36 169 31 l 800 867 q 817 875 806 875 q 833 869 826 875 q 840 853 840 863 z "},"[":{"ha":544,"x_min":0,"x_max":0,"o":""},"\\":{"ha":544,"x_min":0,"x_max":0,"o":""},"]":{"ha":544,"x_min":0,"x_max":0,"o":""},"^":{"ha":544,"x_min":0,"x_max":0,"o":""},"_":{"ha":544,"x_min":0,"x_max":0,"o":""},"`":{"ha":544,"x_min":0,"x_max":0,"o":""},"a":{"ha":1022,"x_min":22,"x_max":901,"o":"m 901 21 q 895 6 901 13 q 881 0 889 0 q 860 14 864 0 l 456 1033 l 410 915 q 433 860 415 904 q 478 751 451 815 q 535 608 504 686 q 597 449 565 529 q 659 292 629 368 q 712 156 689 215 q 749 59 735 96 q 763 21 763 22 q 749 1 763 6 q 744 1 746 1 q 740 0 743 0 q 721 14 726 0 l 388 856 l 64 14 q 43 0 58 0 q 40 1 40 0 q 36 1 39 1 q 22 22 22 6 q 39 68 22 24 q 83 183 56 113 q 145 346 110 254 q 217 534 181 438 q 291 725 254 631 q 358 898 328 819 q 408 1030 388 976 q 435 1099 429 1083 q 456 1111 440 1111 q 475 1099 471 1111 q 502 1030 481 1083 q 554 898 524 976 q 623 725 585 819 q 699 534 661 631 q 774 346 738 438 q 839 183 811 254 q 884 67 867 111 q 901 21 901 22 z "},"b":{"ha":1044,"x_min":128,"x_max":903,"o":"m 903 310 q 878 190 903 246 q 813 92 854 133 q 715 26 771 50 q 594 1 658 1 l 286 1 q 270 10 275 1 q 265 28 265 18 l 265 1069 l 174 1069 l 174 21 q 166 6 174 11 q 150 0 158 0 q 135 6 142 0 q 128 21 128 13 l 128 1090 q 150 1111 128 1111 l 568 1111 q 673 1090 624 1111 q 758 1033 722 1069 q 816 947 794 996 q 838 843 838 899 q 798 702 838 767 q 688 604 758 638 q 775 560 735 589 q 843 492 815 531 q 887 406 871 453 q 903 310 903 360 m 794 843 q 776 931 794 890 q 728 1003 758 972 q 656 1051 697 1033 q 568 1069 615 1069 l 306 1069 l 306 618 l 568 618 q 656 636 614 618 q 728 685 697 654 q 776 756 758 715 q 794 843 794 797 m 860 310 q 839 413 860 364 q 782 497 818 461 q 697 554 746 533 q 594 575 649 575 q 588 576 589 575 l 306 576 l 306 43 l 594 43 q 698 64 650 43 q 782 121 746 85 q 839 206 818 157 q 860 310 860 254 z "},"c":{"ha":986,"x_min":0,"x_max":933,"o":"m 933 157 q 925 140 933 149 q 753 35 850 69 q 556 0 656 0 q 339 44 440 0 q 163 163 238 88 q 44 339 88 238 q 0 556 0 440 q 44 772 0 671 q 163 949 88 874 q 339 1067 238 1024 q 556 1111 440 1111 q 655 1102 604 1111 q 753 1075 706 1093 q 845 1031 801 1057 q 925 971 889 1006 q 933 954 933 963 q 926 939 933 946 q 910 932 918 932 q 896 938 901 932 q 817 992 856 968 q 738 1033 778 1017 q 652 1059 697 1050 q 556 1068 607 1068 q 357 1028 450 1068 q 194 917 264 988 q 83 754 124 847 q 43 556 43 661 q 83 357 43 450 q 194 194 124 264 q 357 83 264 124 q 556 43 450 43 q 738 77 656 43 q 896 174 819 111 q 911 181 903 181 q 926 173 919 181 q 933 157 933 165 z "},"d":{"ha":1133,"x_min":122,"x_max":1019,"o":"m 1019 557 q 976 341 1019 442 q 857 165 932 240 q 681 47 782 90 q 465 3 579 4 l 283 1 q 267 8 274 1 q 261 25 261 15 l 261 1067 l 165 1067 l 165 22 q 143 0 165 0 q 128 7 133 0 q 122 22 122 14 l 122 1088 q 128 1104 122 1097 q 144 1111 135 1111 l 465 1111 q 681 1067 579 1111 q 857 949 782 1024 q 976 772 932 874 q 1019 557 1019 671 m 976 557 q 936 756 976 663 q 827 919 896 850 q 665 1028 758 988 q 465 1068 571 1068 q 385 1067 425 1068 q 304 1067 344 1067 l 304 46 q 385 46 344 46 q 465 47 425 46 q 664 89 571 49 q 826 198 757 129 q 936 359 896 267 q 976 557 976 451 z "},"e":{"ha":919,"x_min":113,"x_max":836,"o":"m 836 24 q 831 8 836 15 q 815 0 825 0 l 135 0 q 119 7 125 0 q 113 24 113 14 l 113 1090 q 119 1106 113 1100 q 135 1111 126 1111 l 815 1111 q 830 1105 824 1111 q 836 1090 836 1099 q 830 1076 836 1082 q 815 1069 824 1069 l 154 1069 l 154 638 l 669 638 q 684 631 678 638 q 690 617 690 625 q 684 602 690 608 q 669 596 678 596 l 157 596 l 156 501 l 675 501 q 697 479 697 501 q 690 464 697 471 q 675 457 683 457 l 154 457 l 154 47 l 815 47 q 830 40 824 47 q 836 24 836 32 z "},"f":{"ha":893,"x_min":97,"x_max":822,"o":"m 822 1090 q 800 1069 822 1069 l 142 1069 l 142 638 l 654 638 q 669 632 663 638 q 676 617 676 626 q 654 596 676 596 l 142 596 l 142 504 l 661 504 q 677 497 671 504 q 683 481 683 490 q 676 465 683 472 q 661 458 669 458 l 142 458 l 142 22 q 119 0 142 0 q 104 7 111 0 q 97 22 97 14 l 97 1090 q 119 1111 97 1111 l 800 1111 q 822 1090 822 1111 z "},"g":{"ha":1146,"x_min":100,"x_max":1033,"o":"m 1026 621 q 1021 606 1026 613 q 1006 599 1015 599 l 464 599 q 442 621 442 599 q 449 636 442 631 q 464 642 456 642 l 1006 642 q 1020 635 1014 642 q 1026 621 1026 629 m 1032 157 q 1025 140 1032 147 q 853 35 950 69 q 656 0 756 0 q 439 44 540 0 q 263 163 338 88 q 144 339 188 238 q 100 556 100 440 q 144 772 100 671 q 263 949 188 874 q 439 1067 338 1024 q 656 1111 540 1111 q 852 1076 756 1111 q 1024 971 949 1042 q 1032 956 1032 963 q 1025 938 1032 946 q 1008 931 1018 931 q 994 938 1001 931 q 838 1034 919 1000 q 656 1068 756 1068 q 457 1028 550 1068 q 294 917 364 988 q 183 754 224 847 q 143 556 143 661 q 183 357 143 450 q 294 194 224 264 q 457 83 364 124 q 656 43 550 43 q 833 76 747 43 q 989 167 918 108 l 990 461 l 461 461 q 445 468 451 461 q 439 485 439 475 q 445 500 439 493 q 461 507 451 507 l 1011 507 q 1033 483 1033 507 l 1032 157 z "},"h":{"ha":1024,"x_min":97,"x_max":838,"o":"m 838 22 q 831 7 838 14 q 815 0 824 0 q 799 6 806 0 q 792 22 792 13 l 792 458 l 139 458 l 139 22 q 118 0 139 0 q 103 7 108 0 q 97 22 97 14 l 97 1090 q 103 1105 97 1099 q 118 1111 110 1111 q 133 1105 126 1111 q 139 1090 139 1099 l 139 636 l 792 636 l 792 1090 q 799 1106 792 1100 q 815 1111 807 1111 q 831 1105 824 1111 q 838 1090 838 1099 l 838 22 m 792 503 l 792 596 l 142 596 l 140 503 l 792 503 z "},"i":{"ha":326,"x_min":97,"x_max":140,"o":"m 140 21 q 133 6 140 11 q 118 0 126 0 q 103 6 110 0 q 97 21 97 13 l 97 1090 q 103 1105 97 1099 q 118 1111 110 1111 q 133 1106 126 1111 q 140 1090 140 1100 l 140 21 z "},"j":{"ha":879,"x_min":103,"x_max":696,"o":"m 696 344 q 669 211 696 274 q 595 101 642 149 q 486 27 549 54 q 353 0 424 0 q 221 26 285 0 q 110 101 157 53 q 103 115 103 108 q 110 130 103 122 q 126 138 118 138 q 149 123 132 138 q 194 90 165 108 q 262 58 222 72 q 354 43 301 43 q 472 67 417 43 q 567 131 526 90 q 632 227 608 172 q 656 344 656 282 l 656 1090 q 662 1105 656 1099 q 676 1111 668 1111 q 690 1105 685 1111 q 696 1090 696 1099 l 696 344 z "},"k":{"ha":890,"x_min":108,"x_max":771,"o":"m 771 19 q 763 6 771 11 q 749 0 756 0 q 732 8 738 0 l 358 531 l 153 325 l 153 31 q 146 16 153 22 q 131 10 139 10 q 115 15 122 10 q 108 31 108 21 l 108 1083 q 115 1099 108 1093 q 131 1104 122 1104 q 146 1098 139 1104 q 153 1083 153 1092 l 153 572 l 685 1106 q 699 1113 692 1113 q 714 1105 707 1113 q 721 1090 721 1097 q 714 1075 721 1082 l 153 513 l 153 385 q 175 408 158 390 q 213 447 192 425 q 258 493 233 469 q 303 537 282 517 q 339 570 324 557 q 358 583 354 583 q 378 575 371 583 q 419 517 386 563 q 495 413 451 472 q 588 286 539 353 q 677 162 636 219 q 744 65 718 104 q 771 19 771 25 z "},"l":{"ha":886,"x_min":104,"x_max":807,"o":"m 807 21 q 785 0 807 0 l 125 0 q 104 21 104 0 l 104 1083 q 110 1098 104 1092 q 125 1104 117 1104 q 140 1098 133 1104 q 146 1083 146 1092 l 146 42 l 239 42 l 239 1089 q 246 1104 239 1097 q 261 1111 253 1111 q 283 1089 283 1111 l 283 42 l 785 42 q 807 21 807 42 z "},"m":{"ha":1379,"x_min":96,"x_max":1193,"o":"m 1193 1092 q 1192 1083 1193 1085 l 1192 21 q 1185 6 1192 13 q 1171 0 1179 0 q 1157 6 1163 0 q 1151 21 1151 13 l 1151 1024 l 672 353 q 697 317 678 343 q 742 255 717 290 q 797 181 768 219 q 850 109 826 143 q 890 51 874 75 q 906 22 906 28 q 899 6 906 13 q 883 0 892 0 q 867 8 872 0 l 103 1072 q 99 1086 99 1078 q 104 1101 99 1094 q 119 1107 110 1107 q 138 1097 132 1107 l 646 389 l 1154 1103 q 1169 1111 1160 1111 q 1185 1106 1178 1111 q 1193 1092 1193 1100 m 738 21 q 731 6 738 13 q 715 0 724 0 q 699 8 704 0 l 140 792 l 140 28 q 133 13 140 18 q 118 7 126 7 q 103 13 110 7 q 96 28 96 19 l 96 856 q 101 874 96 865 q 118 882 107 882 q 135 872 129 882 q 176 816 144 858 q 251 713 207 774 q 348 578 294 651 q 456 428 401 504 q 560 281 510 353 q 651 153 611 210 q 714 61 690 97 q 738 21 738 25 z "},"n":{"ha":1089,"x_min":94,"x_max":903,"o":"m 903 22 q 881 0 903 0 q 864 8 869 0 l 100 1071 q 97 1083 97 1074 q 118 1106 97 1106 q 135 1096 126 1106 l 860 88 l 860 1090 q 866 1105 860 1099 q 881 1111 872 1111 q 895 1105 889 1111 q 901 1090 901 1099 l 903 22 m 735 21 q 728 6 735 13 q 713 0 721 0 q 696 8 701 0 l 139 790 l 139 22 q 132 7 139 14 q 117 0 125 0 q 94 22 94 0 l 94 860 q 101 874 94 867 q 115 881 108 881 q 133 871 125 881 q 174 815 143 857 q 249 711 204 772 q 346 576 293 650 q 453 426 399 501 q 558 280 507 351 q 648 152 608 208 q 711 60 688 96 q 735 21 735 25 z "},"o":{"ha":1292,"x_min":67,"x_max":1178,"o":"m 1178 556 q 1134 339 1178 440 q 1015 163 1090 238 q 839 44 940 88 q 622 0 738 0 q 406 44 507 0 q 229 163 304 88 q 110 339 154 238 q 67 556 67 440 q 110 772 67 671 q 229 949 154 874 q 406 1067 304 1024 q 622 1111 507 1111 q 839 1067 738 1111 q 1015 949 940 1024 q 1134 772 1090 874 q 1178 556 1178 671 m 1135 556 q 1094 754 1135 661 q 984 917 1054 847 q 821 1028 914 988 q 622 1068 728 1068 q 424 1028 517 1068 q 260 917 331 988 q 150 754 190 847 q 110 556 110 661 q 150 357 110 450 q 260 194 190 264 q 424 83 331 124 q 622 43 517 43 q 821 83 728 43 q 984 194 914 124 q 1094 357 1054 264 q 1135 556 1135 450 z "},"p":{"ha":906,"x_min":111,"x_max":818,"o":"m 818 843 q 797 739 818 788 q 739 653 775 690 q 654 596 703 617 q 550 575 606 575 l 290 575 l 290 28 q 283 13 290 18 q 267 7 275 7 q 251 13 258 7 q 244 28 244 19 l 244 1067 l 154 1067 l 154 21 q 147 6 154 11 q 132 0 140 0 q 117 6 124 0 q 111 21 111 13 l 111 1089 q 132 1111 111 1111 l 550 1111 q 654 1090 606 1111 q 739 1032 703 1068 q 797 947 775 996 q 818 843 818 899 m 775 842 q 757 928 775 888 q 708 1000 739 969 q 637 1049 678 1031 q 550 1067 596 1067 l 290 1067 l 290 617 l 550 617 q 637 635 596 617 q 708 683 678 653 q 757 755 739 714 q 775 842 775 796 z "},"q":{"ha":1343,"x_min":111,"x_max":1213,"o":"m 1213 561 q 1060 181 1213 342 q 1083 148 1065 172 q 1120 98 1101 124 q 1153 49 1139 72 q 1168 21 1168 26 q 1162 6 1168 13 q 1147 0 1156 0 q 1129 8 1135 0 q 1098 51 1122 18 q 1042 129 1074 85 q 974 223 1010 174 q 908 315 938 272 q 858 388 878 358 q 839 422 839 418 q 845 437 839 431 q 860 443 851 443 q 878 433 872 443 l 1033 217 q 1134 376 1100 288 q 1168 561 1168 464 q 1128 758 1168 665 q 1019 919 1088 850 q 858 1028 950 988 q 661 1068 765 1068 q 465 1028 557 1068 q 303 919 372 988 q 194 758 235 850 q 154 561 154 665 q 194 365 154 457 q 303 203 235 272 q 465 94 372 135 q 661 54 557 54 q 778 69 721 54 q 889 107 835 83 q 865 140 883 115 q 822 199 846 165 q 771 270 797 233 q 722 340 744 307 q 684 394 699 372 q 669 421 669 417 q 676 436 669 429 q 692 443 682 443 q 710 433 704 443 q 737 394 714 426 q 792 317 760 363 q 860 222 824 272 q 926 128 896 171 q 977 54 957 85 q 997 21 997 24 q 991 6 997 13 q 976 0 985 0 q 959 9 968 0 q 942 30 950 18 q 926 53 933 42 q 914 72 918 65 q 792 26 856 42 q 661 10 728 10 q 446 53 546 10 q 272 171 346 96 q 154 346 197 246 q 111 561 111 446 q 154 775 111 675 q 272 950 197 875 q 447 1068 347 1025 q 661 1111 547 1111 q 876 1068 775 1111 q 1051 951 976 1025 q 1169 776 1126 876 q 1213 561 1213 675 z "},"r":{"ha":935,"x_min":124,"x_max":799,"o":"m 799 864 q 782 772 799 815 q 736 694 765 728 q 666 639 707 661 q 576 610 625 617 q 562 608 569 608 q 547 608 554 608 l 306 608 l 304 515 l 558 515 q 578 503 571 515 q 600 453 582 492 q 642 361 618 414 q 694 250 667 308 q 744 142 721 192 q 782 58 767 92 q 797 19 797 24 q 790 5 797 10 q 775 0 783 0 q 756 13 761 0 l 544 472 l 300 472 l 300 28 q 293 13 300 18 q 278 7 286 7 q 263 13 269 7 q 257 28 257 19 l 257 1069 l 167 1069 l 167 21 q 160 6 167 11 q 144 0 153 0 q 130 6 136 0 q 124 21 124 13 l 124 1090 q 144 1111 124 1111 l 547 1111 q 646 1092 600 1111 q 726 1040 692 1074 q 779 962 760 1007 q 799 864 799 917 m 756 864 q 739 944 756 907 q 694 1010 722 982 q 628 1053 665 1038 q 547 1069 590 1069 l 300 1069 l 300 651 l 547 651 q 628 668 590 651 q 695 714 667 685 q 740 781 724 743 q 756 864 756 819 z "},"s":{"ha":900,"x_min":-1,"x_max":790,"o":"m 790 299 q 758 167 790 224 q 672 74 725 111 q 552 19 618 38 q 419 0 486 0 q 196 46 301 0 q 7 171 90 92 q -1 186 -1 179 q 6 202 -1 194 q 22 210 13 210 q 36 203 29 210 q 215 87 122 131 q 422 43 307 43 q 538 59 481 43 q 642 108 596 75 q 717 189 689 140 q 746 303 746 238 q 721 394 746 356 q 656 459 696 432 q 563 504 615 486 q 458 535 511 522 q 355 558 406 549 q 267 578 304 568 q 178 612 221 590 q 104 665 136 633 q 53 740 72 697 q 35 835 35 782 q 67 958 35 906 q 152 1044 100 1010 q 267 1095 204 1078 q 392 1113 331 1113 q 480 1104 431 1113 q 578 1080 529 1096 q 671 1042 628 1064 q 743 992 714 1019 q 749 985 747 988 q 751 975 751 982 q 744 960 751 967 q 729 953 738 953 q 719 957 726 953 q 702 967 711 961 q 685 978 693 974 q 674 986 678 983 q 540 1046 611 1024 q 394 1068 469 1068 q 286 1055 342 1068 q 184 1014 231 1042 q 108 942 138 986 q 78 838 78 899 q 108 728 78 771 q 189 659 139 686 q 303 615 239 632 q 434 583 367 599 q 565 550 501 568 q 679 501 629 532 q 760 422 729 469 q 790 299 790 374 z "},"t":{"ha":946,"x_min":97,"x_max":829,"o":"m 822 1090 q 816 1076 822 1082 q 801 1069 810 1069 l 118 1069 q 103 1076 110 1069 q 97 1090 97 1082 q 103 1105 97 1099 q 118 1111 110 1111 l 801 1111 q 816 1105 810 1111 q 822 1090 822 1099 m 829 956 q 823 940 829 947 q 808 933 817 933 l 486 933 l 486 21 q 479 6 486 13 q 464 0 472 0 q 449 6 456 0 q 442 21 442 11 l 442 933 l 118 933 q 103 940 110 933 q 97 956 97 947 q 103 972 97 964 q 118 979 108 979 l 808 979 q 824 972 818 979 q 829 956 829 964 z "},"u":{"ha":932,"x_min":94,"x_max":746,"o":"m 746 275 q 725 169 746 219 q 667 82 704 119 q 581 22 631 44 q 476 0 532 0 l 369 0 q 263 22 313 0 q 175 81 213 43 q 116 168 138 118 q 94 275 94 218 l 94 1090 q 101 1105 94 1099 q 115 1111 107 1111 q 130 1105 124 1111 q 136 1090 136 1099 l 136 275 q 155 185 136 228 q 206 111 174 143 q 280 60 238 79 q 369 42 322 42 l 476 42 q 565 60 524 42 q 638 111 607 79 q 686 185 668 143 q 704 275 704 228 l 704 1090 q 710 1105 704 1099 q 725 1111 717 1111 q 740 1105 733 1111 q 746 1090 746 1099 l 746 275 z "},"v":{"ha":1022,"x_min":0,"x_max":876,"o":"m 876 1090 q 859 1043 876 1088 q 814 927 842 999 q 750 765 786 856 q 675 577 714 674 q 599 386 636 481 q 530 214 561 292 q 478 83 499 136 q 451 14 457 29 q 432 0 446 0 q 422 6 428 3 q 413 14 415 8 q 386 82 407 28 q 335 214 365 136 q 269 386 306 292 q 194 577 232 481 q 122 765 157 674 q 60 928 88 857 q 17 1043 33 999 q 0 1089 0 1088 q 6 1105 0 1099 q 21 1111 13 1111 q 42 1097 38 1111 l 364 258 l 696 1097 q 717 1111 700 1111 q 731 1105 725 1111 q 738 1090 738 1099 q 724 1051 738 1088 q 687 956 710 1015 q 635 822 664 897 q 574 666 606 746 q 511 508 542 586 q 455 366 481 431 q 411 257 429 301 q 388 200 393 213 l 432 82 l 835 1097 q 856 1111 839 1111 q 870 1105 864 1111 q 876 1090 876 1099 z "},"w":{"ha":1375,"x_min":94,"x_max":1189,"o":"m 1189 21 q 1183 6 1189 13 q 1168 0 1176 0 q 1151 8 1157 0 l 643 721 l 135 14 q 118 4 129 4 q 102 11 108 4 q 96 26 96 18 q 126 76 96 31 q 208 192 157 121 q 323 353 258 263 q 457 538 388 443 q 594 727 526 633 q 718 898 663 821 q 813 1030 774 975 q 864 1101 853 1085 q 879 1110 869 1110 q 895 1103 888 1110 q 903 1088 903 1097 q 887 1058 903 1082 q 847 1001 871 1035 q 795 929 824 968 q 740 856 767 890 q 694 794 714 821 q 669 758 675 767 l 1146 89 l 1146 1090 q 1153 1106 1146 1100 q 1168 1111 1160 1111 q 1183 1105 1176 1111 q 1189 1090 1189 1099 l 1189 21 m 735 1088 q 711 1049 735 1085 q 648 958 688 1014 q 558 830 608 901 q 453 683 507 758 q 346 533 399 607 q 249 399 293 460 q 174 295 204 338 q 133 239 143 253 q 117 229 128 229 q 100 236 106 229 q 94 253 94 243 l 94 1083 q 101 1098 94 1092 q 115 1104 107 1104 q 131 1099 124 1104 q 138 1083 138 1093 l 138 317 l 696 1100 q 714 1110 701 1110 q 728 1103 722 1110 q 735 1088 735 1097 z "},"x":{"ha":1099,"x_min":0,"x_max":979,"o":"m 979 19 q 972 6 979 11 q 957 0 964 0 q 939 8 944 0 q 889 81 928 26 q 794 214 850 136 q 669 385 738 292 q 532 574 601 478 q 397 760 463 669 q 281 921 332 850 q 200 1037 231 992 q 169 1086 169 1082 q 177 1102 169 1096 q 193 1108 185 1108 q 208 1100 201 1108 l 517 671 l 826 1103 q 843 1111 832 1111 q 858 1106 851 1111 q 865 1090 865 1100 q 844 1052 865 1085 q 789 972 822 1019 q 717 870 756 925 q 642 766 678 815 q 578 681 606 717 q 543 633 551 644 l 974 33 q 979 19 979 28 m 810 22 q 803 6 810 13 q 788 0 796 0 q 771 8 776 0 l 432 481 l 94 8 q 78 0 88 0 q 63 6 69 0 q 56 22 56 13 q 79 62 56 26 q 139 149 103 97 q 219 259 175 200 q 301 372 263 318 q 369 465 340 425 q 407 517 399 506 q 363 575 397 529 q 284 683 329 621 q 189 815 239 746 q 97 944 139 885 q 28 1044 56 1004 q 0 1090 0 1085 q 6 1105 0 1099 q 22 1111 13 1111 q 39 1103 32 1111 q 89 1031 50 1086 q 184 899 128 976 q 309 726 240 821 q 447 536 378 632 q 582 349 517 440 q 698 187 647 258 q 779 71 749 115 q 810 22 810 26 z "},"y":{"ha":1011,"x_min":-1,"x_max":869,"o":"m 869 1090 q 848 1051 869 1085 q 793 967 826 1017 q 721 859 760 917 q 646 749 682 801 q 583 659 610 697 q 547 610 556 621 q 529 600 542 600 q 508 611 517 600 l 175 1075 q 171 1086 171 1079 q 178 1102 171 1096 q 194 1108 186 1108 q 210 1100 203 1108 l 528 658 l 829 1101 q 847 1111 835 1111 q 863 1105 856 1111 q 869 1090 869 1099 m 544 21 q 538 6 544 13 q 524 0 532 0 q 509 6 515 0 q 503 21 503 13 l 503 390 q 450 462 492 406 q 352 594 408 518 q 234 756 296 671 q 119 915 172 842 q 33 1037 67 988 q -1 1092 -1 1086 q 6 1106 -1 1100 q 22 1111 14 1111 q 39 1103 32 1111 l 540 410 q 544 397 544 403 l 544 21 z "},"z":{"ha":978,"x_min":0,"x_max":840,"o":"m 840 1090 q 839 1081 840 1083 q 835 1074 838 1079 l 43 11 q 25 3 36 3 q 10 9 17 3 q 3 25 3 15 q 33 72 3 29 q 115 184 64 115 q 231 341 165 253 q 365 522 296 429 q 503 706 435 615 q 628 872 571 797 q 724 1000 685 947 q 775 1068 764 1053 l 22 1067 q 6 1074 13 1067 q 0 1090 0 1081 q 7 1106 0 1100 q 22 1111 14 1111 l 818 1111 q 833 1106 826 1111 q 840 1090 840 1100 m 840 853 q 835 840 840 846 l 236 43 l 807 43 q 829 21 829 43 q 822 6 829 11 q 807 0 815 0 l 194 0 q 178 6 186 0 q 169 22 169 13 q 175 36 169 31 l 800 867 q 817 875 806 875 q 833 869 826 875 q 840 853 840 863 z "}}}
